<svg version="1.1" id="Layer_1" xmlns="http://www.w3.org/2000/svg" xmlns:xlink="http://www.w3.org/1999/xlink" x="0px" y="0px"
     width="100%" viewBox="38 387 325 228" enable-background="new 38 387 325 228" xml:space="preserve">
<path fill="#75D33B" opacity="1.000000" stroke="none" 
    d="
M194.667999,526.303589 
    C199.875854,531.349426 199.883957,531.357483 204.631729,526.601379 
    C241.012695,490.156952 277.391357,453.710236 313.763092,417.256561 
    C314.799103,416.218262 315.749756,415.094757 316.788422,413.958221 
    C315.118958,411.979523 313.031403,412.410858 311.132172,412.361176 
    C307.634552,412.269745 304.123169,412.471619 300.636261,412.252991 
    C294.120331,411.844452 289.327423,407.004028 288.940094,400.708893 
    C288.533630,394.102905 292.798920,388.682861 299.385681,387.542114 
    C301.019379,387.259216 302.694916,387.092316 304.351776,387.088104 
    C319.017822,387.050873 333.684235,387.012115 348.350067,387.077057 
    C358.106079,387.120239 361.301453,390.358673 361.310486,399.965332 
    C361.324249,414.631531 361.327515,429.297729 361.299927,443.963898 
    C361.285858,451.448364 356.480103,456.618286 349.580719,456.671082 
    C342.517456,456.725128 337.852142,451.804138 337.724335,444.090668 
    C337.664642,440.487915 337.714142,436.883331 337.714142,433.165222 
    C334.981781,433.375885 334.981232,435.086456 332.757721,436.297943 
    C305.285126,463.502075 277.812958,490.705658 250.872528,518.442383 
    C237.871811,531.827393 224.659271,545.011047 211.356247,558.096313 
    C204.004700,565.327454 194.648697,565.137878 187.415680,557.808105 
    C178.649582,548.924805 170.078293,539.849304 161.060547,531.195679 
    C158.612152,531.704224 157.705521,533.285034 156.577820,534.410400 
    C134.282944,556.660400 112.002052,578.924500 89.754181,601.221497 
    C83.325851,607.664001 74.178604,608.146790 68.514900,602.208679 
    C62.789379,596.205750 63.750210,588.045410 70.377914,581.500793 
    C95.633461,556.561829 120.782066,531.514221 145.907501,506.443909 
    C154.878510,497.492584 165.459839,497.454407 174.445053,506.454224 
    C181.036667,513.056519 187.753021,519.534241 194.667999,526.303589 
z"/>
<path fill="#75D33B" opacity="1.000000" stroke="none" 
    d="
M51.663528,463.803040 
    C66.261444,431.839508 89.519775,409.277130 121.745972,396.310974 
    C166.911240,378.138824 218.904953,390.260376 252.196228,426.401886 
    C255.012924,429.459778 257.517761,432.802887 260.225586,435.963745 
    C262.244263,438.320221 261.955414,440.221344 259.720428,442.384003 
    C253.496582,448.406647 247.368622,454.533142 241.347809,460.758789 
    C238.208908,464.004486 236.928604,461.497650 235.298050,459.247742 
    C223.671875,443.204865 208.526672,431.720276 189.470154,426.355286 
    C154.284302,416.449371 123.894302,425.803223 98.790138,451.715393 
    C82.425171,468.607117 74.872276,489.509277 75.408318,513.055176 
    C75.597702,521.374023 77.248573,529.599060 80.215149,537.433411 
    C81.376663,540.500916 80.985573,542.707092 78.551094,544.968689 
    C71.404411,551.607666 64.414589,558.415588 56.688339,565.802673 
    C38.927547,532.054321 37.087208,498.541931 51.663528,463.803040 
z"/>
<path fill="#bfcab3" opacity="1.000000" stroke="none" 
    d="
M287.051300,558.000000 
    C287.057159,573.820007 287.084625,589.140137 287.060181,604.460083 
    C287.045746,613.515076 286.310944,614.229248 277.507416,614.228699 
    C273.677399,614.228516 269.847137,614.247925 266.017426,614.213318 
    C259.352509,614.153137 257.676758,612.548462 257.625153,606.001099 
    C257.567749,598.720154 257.612000,591.438416 257.612000,582.953979 
    C251.006653,589.834778 245.141571,595.648804 238.390579,600.493652 
    C229.608704,606.795959 219.935898,611.087219 209.513855,613.717834 
    C203.599335,615.210632 202.029572,613.855408 201.895905,607.669861 
    C201.892303,607.503418 201.894440,607.336792 201.889801,607.170349 
    C201.358475,588.144714 202.341583,588.987000 215.550385,582.066833 
    C228.720810,575.166931 238.281433,564.334534 244.938095,550.991272 
    C245.743652,549.376526 246.701050,547.729126 247.958206,546.464905 
    C259.581177,534.777039 271.281708,523.166260 282.974762,511.548157 
    C283.771301,510.756744 284.481323,509.701294 287.051086,510.188660 
    C287.051086,525.797058 287.051086,541.648499 287.051300,558.000000 
z"/>
</svg>
