<svg version="1.1" id="Layer_1" xmlns="http://www.w3.org/2000/svg" xmlns:xlink="http://www.w3.org/1999/xlink" x="0px" y="0px"
     width="100%" viewBox="0 380 1024 240" enable-background="new 0 380 1024 240" xml:space="preserve">
<path fill="#75D33B" opacity="1.000000" stroke="none" 
    d="
M194.667999,526.303589 
    C199.875854,531.349426 199.883957,531.357483 204.631729,526.601379 
    C241.012695,490.156952 277.391357,453.710236 313.763092,417.256561 
    C314.799103,416.218262 315.749756,415.094757 316.788422,413.958221 
    C315.118958,411.979523 313.031403,412.410858 311.132172,412.361176 
    C307.634552,412.269745 304.123169,412.471619 300.636261,412.252991 
    C294.120331,411.844452 289.327423,407.004028 288.940094,400.708893 
    C288.533630,394.102905 292.798920,388.682861 299.385681,387.542114 
    C301.019379,387.259216 302.694916,387.092316 304.351776,387.088104 
    C319.017822,387.050873 333.684235,387.012115 348.350067,387.077057 
    C358.106079,387.120239 361.301453,390.358673 361.310486,399.965332 
    C361.324249,414.631531 361.327515,429.297729 361.299927,443.963898 
    C361.285858,451.448364 356.480103,456.618286 349.580719,456.671082 
    C342.517456,456.725128 337.852142,451.804138 337.724335,444.090668 
    C337.664642,440.487915 337.714142,436.883331 337.714142,433.165222 
    C334.981781,433.375885 334.981232,435.086456 332.757721,436.297943 
    C305.285126,463.502075 277.812958,490.705658 250.872528,518.442383 
    C237.871811,531.827393 224.659271,545.011047 211.356247,558.096313 
    C204.004700,565.327454 194.648697,565.137878 187.415680,557.808105 
    C178.649582,548.924805 170.078293,539.849304 161.060547,531.195679 
    C158.612152,531.704224 157.705521,533.285034 156.577820,534.410400 
    C134.282944,556.660400 112.002052,578.924500 89.754181,601.221497 
    C83.325851,607.664001 74.178604,608.146790 68.514900,602.208679 
    C62.789379,596.205750 63.750210,588.045410 70.377914,581.500793 
    C95.633461,556.561829 120.782066,531.514221 145.907501,506.443909 
    C154.878510,497.492584 165.459839,497.454407 174.445053,506.454224 
    C181.036667,513.056519 187.753021,519.534241 194.667999,526.303589 
z"/>
<path fill="#75D33B" opacity="1.000000" stroke="none" 
    d="
M51.663528,463.803040 
    C66.261444,431.839508 89.519775,409.277130 121.745972,396.310974 
    C166.911240,378.138824 218.904953,390.260376 252.196228,426.401886 
    C255.012924,429.459778 257.517761,432.802887 260.225586,435.963745 
    C262.244263,438.320221 261.955414,440.221344 259.720428,442.384003 
    C253.496582,448.406647 247.368622,454.533142 241.347809,460.758789 
    C238.208908,464.004486 236.928604,461.497650 235.298050,459.247742 
    C223.671875,443.204865 208.526672,431.720276 189.470154,426.355286 
    C154.284302,416.449371 123.894302,425.803223 98.790138,451.715393 
    C82.425171,468.607117 74.872276,489.509277 75.408318,513.055176 
    C75.597702,521.374023 77.248573,529.599060 80.215149,537.433411 
    C81.376663,540.500916 80.985573,542.707092 78.551094,544.968689 
    C71.404411,551.607666 64.414589,558.415588 56.688339,565.802673 
    C38.927547,532.054321 37.087208,498.541931 51.663528,463.803040 
z"/>
<path fill="#94a3b8" opacity="1.000000" stroke="none" 
    d="
M406.164520,572.865723 
    C385.626678,552.841980 379.315369,529.060913 387.690094,502.244263 
    C396.044678,475.491730 415.589935,460.260040 442.811066,456.161438 
    C483.506348,450.034088 518.921143,477.794830 519.253906,520.872375 
    C519.409607,541.033569 519.172607,561.197937 519.349915,581.358765 
    C519.389160,585.825684 518.162476,587.740906 513.423340,587.389038 
    C508.451599,587.019897 503.406433,586.986755 498.439667,587.384766 
    C493.385376,587.789795 491.267517,586.000366 491.916321,580.938049 
    C492.036621,579.999573 492.053802,578.924011 490.985260,578.004211 
    C461.796265,595.369507 433.480896,594.802551 406.164520,572.865723 
M425.172882,491.660797 
    C413.376740,503.163910 408.844025,516.868774 412.997589,533.005188 
    C418.639282,554.922852 439.846161,567.763367 461.339355,562.452209 
    C482.480957,557.227844 496.092133,534.889282 491.212433,513.411499 
    C484.679565,484.657562 450.332123,470.448914 425.172882,491.660797 
z"/>
<path fill="#94a3b8" opacity="1.000000" stroke="none" 
    d="
M918.943604,454.678101 
    C957.501099,455.715576 989.039246,488.240784 983.597839,531.224487 
    C980.011536,559.554138 960.416443,581.193298 933.603210,587.885315 
    C905.585510,594.877930 877.214783,585.401428 860.938232,562.311340 
    C845.231201,540.029236 843.349365,515.781921 855.735779,491.458954 
    C867.675964,468.012207 887.661682,456.038177 913.959473,454.702820 
    C915.455078,454.626862 916.957214,454.679688 918.943604,454.678101 
M948.456299,547.932312 
    C955.133057,539.596985 957.763611,530.026978 957.035156,519.474060 
    C955.898071,503.001312 947.721863,491.122864 932.730652,484.546875 
    C917.921387,478.050690 903.558105,480.045502 890.926453,490.062134 
    C878.117554,500.219330 873.052673,513.982666 876.037109,530.014160 
    C879.152710,546.750854 889.430481,557.980225 905.842712,562.244446 
    C922.424622,566.552734 936.731934,561.605530 948.456299,547.932312 
z"/>
<path fill="#94a3b8" opacity="1.000000" stroke="none" 
    d="
M756.041382,557.057007 
    C757.426086,556.082214 758.553589,555.363220 759.590210,554.531006 
    C766.985107,548.594666 766.990295,548.571594 774.952026,554.153198 
    C778.087585,556.351318 781.089600,558.746643 784.285156,560.850525 
    C787.101685,562.704895 787.027100,564.378662 784.916138,566.851746 
    C771.487915,582.583496 754.166199,590.205078 733.828003,589.828674 
    C706.185425,589.317078 684.932861,576.838135 672.910156,551.708801 
    C650.994385,505.901276 684.354126,457.784515 730.819946,454.907074 
    C751.708801,453.613464 769.876038,460.114166 783.990112,476.216003 
    C784.756653,477.090515 785.500366,477.992279 786.169312,478.941559 
    C786.438232,479.323151 786.476624,479.867188 786.836182,481.046875 
    C780.652100,485.161194 774.365356,489.433594 767.977722,493.549500 
    C765.410583,495.203644 764.058594,492.724152 762.514954,491.411316 
    C748.185242,479.224213 728.218384,477.532227 712.803772,487.246033 
    C693.091614,499.668060 687.434265,525.045471 699.916443,545.055298 
    C711.486694,563.603271 736.209290,569.008362 756.041382,557.057007 
z"/>
<path fill="#94a3b8" opacity="1.000000" stroke="none" 
    d="
M646.915039,486.978821 
    C643.125305,489.437042 639.862183,492.852051 636.067505,493.611603 
    C632.142517,494.397186 629.659546,489.554199 626.257935,487.581451 
    C611.391785,478.959839 596.364380,478.450714 581.810608,487.589996 
    C567.778320,496.401855 561.165100,509.824768 562.867126,526.253113 
    C564.762451,544.546936 574.806458,557.220825 592.839417,562.149841 
    C607.427795,566.137207 620.632080,562.521301 631.419800,551.774536 
    C634.491333,548.714783 636.605591,548.698120 639.817871,551.276489 
    C643.964966,554.605225 648.384338,557.634216 652.898010,560.453613 
    C656.182312,562.505066 656.247192,564.229248 653.797974,567.094238 
    C633.479065,590.861938 597.245056,597.119080 570.052429,581.435974 
    C543.276123,565.993042 530.808289,538.592407 536.885986,508.545898 
    C542.488953,480.846313 565.929871,459.189331 595.333923,456.079468 
    C616.718079,453.817749 636.515686,458.266632 651.839905,475.024719 
    C656.593201,480.222748 656.562500,480.373810 650.929504,484.246796 
    C649.694702,485.095764 648.448914,485.928802 646.915039,486.978821 
z"/>
<path fill="#94a3b8" opacity="1.000000" stroke="none" 
    d="
M287.051300,558.000000 
    C287.057159,573.820007 287.084625,589.140137 287.060181,604.460083 
    C287.045746,613.515076 286.310944,614.229248 277.507416,614.228699 
    C273.677399,614.228516 269.847137,614.247925 266.017426,614.213318 
    C259.352509,614.153137 257.676758,612.548462 257.625153,606.001099 
    C257.567749,598.720154 257.612000,591.438416 257.612000,582.953979 
    C251.006653,589.834778 245.141571,595.648804 238.390579,600.493652 
    C229.608704,606.795959 219.935898,611.087219 209.513855,613.717834 
    C203.599335,615.210632 202.029572,613.855408 201.895905,607.669861 
    C201.892303,607.503418 201.894440,607.336792 201.889801,607.170349 
    C201.358475,588.144714 202.341583,588.987000 215.550385,582.066833 
    C228.720810,575.166931 238.281433,564.334534 244.938095,550.991272 
    C245.743652,549.376526 246.701050,547.729126 247.958206,546.464905 
    C259.581177,534.777039 271.281708,523.166260 282.974762,511.548157 
    C283.771301,510.756744 284.481323,509.701294 287.051086,510.188660 
    C287.051086,525.797058 287.051086,541.648499 287.051300,558.000000 
z"/>
<path fill="#94a3b8" opacity="1.000000" stroke="none" 
    d="
M803.729919,515.000000 
    C803.731262,497.344604 803.878540,480.187225 803.641541,463.035126 
    C803.574768,458.199158 805.187988,456.466614 809.960327,456.778381 
    C814.769714,457.092560 819.616150,456.824493 824.446228,456.842499 
    C831.088257,456.867218 831.240784,456.983826 831.244019,463.499146 
    C831.259766,494.811890 831.248413,526.124634 831.246582,557.437378 
    C831.246094,565.598633 831.096375,573.763794 831.307129,581.919617 
    C831.414246,586.066284 829.843750,587.568420 825.745117,587.367188 
    C820.594238,587.114319 815.401550,587.022888 810.264038,587.386597 
    C805.296082,587.738342 803.586975,586.109985 803.645447,580.955933 
    C803.892700,559.139771 803.738037,537.319031 803.729919,515.000000 
z"/>
<path fill="#94a3b8" opacity="1.000000" stroke="none" 
    d="
M804.550293,433.343811 
    C799.340393,426.440826 799.108459,419.380554 803.305969,412.527557 
    C806.980103,406.528961 812.848328,403.665344 819.904968,404.527069 
    C827.624146,405.469757 832.518799,410.119354 834.688049,417.559906 
    C836.720642,424.531891 833.376587,432.922729 827.166748,436.657837 
    C819.708008,441.144165 811.914551,440.088318 804.550293,433.343811 
z"/>
</svg>
